<mxfile host="app.diagrams.net" agent="Mozilla/5.0 (Windows NT 10.0; Win64; x64) AppleWebKit/537.36 (KHTML, like Gecko) Chrome/127.0.0.0 Safari/537.36 OPR/113.0.0.0" version="24.7.14">
  <diagram name="Страница — 1" id="0OpV4Xa3QXV75NDmF0c9">
    <mxGraphModel dx="1441" dy="770" grid="1" gridSize="10" guides="1" tooltips="1" connect="1" arrows="1" fold="1" page="1" pageScale="1" pageWidth="827" pageHeight="1169" math="0" shadow="0">
      <root>
        <mxCell id="0" />
        <mxCell id="1" parent="0" />
        <mxCell id="2IdYhjhQksEz0VN_lS5l-38" value="DrawStrategies" style="shape=module;align=left;spacingLeft=20;align=center;verticalAlign=top;whiteSpace=wrap;html=1;" parent="1" vertex="1">
          <mxGeometry x="1090" y="482" width="1200" height="348" as="geometry" />
        </mxCell>
        <mxCell id="2IdYhjhQksEz0VN_lS5l-20" value="gfx" style="shape=module;align=left;spacingLeft=20;align=center;verticalAlign=top;whiteSpace=wrap;html=1;" parent="1" vertex="1">
          <mxGeometry x="140" y="630" width="890" height="270" as="geometry" />
        </mxCell>
        <mxCell id="Rg9wagiexUnOvc4vePpl-20" value="Shapes" style="shape=module;align=left;spacingLeft=20;align=center;verticalAlign=top;whiteSpace=wrap;html=1;" parent="1" vertex="1">
          <mxGeometry x="120" y="200" width="880" height="410" as="geometry" />
        </mxCell>
        <mxCell id="Rg9wagiexUnOvc4vePpl-1" value="main" style="shape=module;align=left;spacingLeft=20;align=center;verticalAlign=top;whiteSpace=wrap;html=1;" parent="1" vertex="1">
          <mxGeometry x="130" y="20" width="260" height="140" as="geometry" />
        </mxCell>
        <mxCell id="Rg9wagiexUnOvc4vePpl-2" value="App" style="swimlane;fontStyle=1;align=center;verticalAlign=top;childLayout=stackLayout;horizontal=1;startSize=26;horizontalStack=0;resizeParent=1;resizeParentMax=0;resizeLast=0;collapsible=1;marginBottom=0;whiteSpace=wrap;html=1;" parent="1" vertex="1">
          <mxGeometry x="180" y="60" width="160" height="34" as="geometry" />
        </mxCell>
        <mxCell id="Rg9wagiexUnOvc4vePpl-4" value="" style="line;strokeWidth=1;fillColor=none;align=left;verticalAlign=middle;spacingTop=-1;spacingLeft=3;spacingRight=3;rotatable=0;labelPosition=right;points=[];portConstraint=eastwest;strokeColor=inherit;" parent="Rg9wagiexUnOvc4vePpl-2" vertex="1">
          <mxGeometry y="26" width="160" height="8" as="geometry" />
        </mxCell>
        <mxCell id="Rg9wagiexUnOvc4vePpl-6" value="CommandHandler" style="shape=module;align=left;spacingLeft=20;align=center;verticalAlign=top;whiteSpace=wrap;html=1;" parent="1" vertex="1">
          <mxGeometry x="430" y="20" width="330" height="150" as="geometry" />
        </mxCell>
        <mxCell id="Rg9wagiexUnOvc4vePpl-10" value="CommandHandler" style="swimlane;fontStyle=1;align=center;verticalAlign=top;childLayout=stackLayout;horizontal=1;startSize=26;horizontalStack=0;resizeParent=1;resizeParentMax=0;resizeLast=0;collapsible=1;marginBottom=0;whiteSpace=wrap;html=1;" parent="1" vertex="1">
          <mxGeometry x="475" y="50" width="240" height="86" as="geometry" />
        </mxCell>
        <mxCell id="Rg9wagiexUnOvc4vePpl-11" value="- m_picture: Picture" style="text;strokeColor=none;fillColor=none;align=left;verticalAlign=top;spacingLeft=4;spacingRight=4;overflow=hidden;rotatable=0;points=[[0,0.5],[1,0.5]];portConstraint=eastwest;whiteSpace=wrap;html=1;" parent="Rg9wagiexUnOvc4vePpl-10" vertex="1">
          <mxGeometry y="26" width="240" height="26" as="geometry" />
        </mxCell>
        <mxCell id="Rg9wagiexUnOvc4vePpl-12" value="" style="line;strokeWidth=1;fillColor=none;align=left;verticalAlign=middle;spacingTop=-1;spacingLeft=3;spacingRight=3;rotatable=0;labelPosition=right;points=[];portConstraint=eastwest;strokeColor=inherit;" parent="Rg9wagiexUnOvc4vePpl-10" vertex="1">
          <mxGeometry y="52" width="240" height="8" as="geometry" />
        </mxCell>
        <mxCell id="2IdYhjhQksEz0VN_lS5l-1" value="+ Handle(in: istream, out: ostream): void" style="text;strokeColor=none;fillColor=none;align=left;verticalAlign=top;spacingLeft=4;spacingRight=4;overflow=hidden;rotatable=0;points=[[0,0.5],[1,0.5]];portConstraint=eastwest;whiteSpace=wrap;html=1;" parent="Rg9wagiexUnOvc4vePpl-10" vertex="1">
          <mxGeometry y="60" width="240" height="26" as="geometry" />
        </mxCell>
        <mxCell id="Rg9wagiexUnOvc4vePpl-14" value="" style="endArrow=diamondThin;endFill=0;endSize=24;html=1;rounded=0;" parent="1" source="Rg9wagiexUnOvc4vePpl-16" target="Rg9wagiexUnOvc4vePpl-10" edge="1">
          <mxGeometry width="160" relative="1" as="geometry">
            <mxPoint x="340" y="170" as="sourcePoint" />
            <mxPoint x="500" y="170" as="targetPoint" />
          </mxGeometry>
        </mxCell>
        <mxCell id="Rg9wagiexUnOvc4vePpl-16" value="Picture" style="swimlane;fontStyle=1;align=center;verticalAlign=top;childLayout=stackLayout;horizontal=1;startSize=26;horizontalStack=0;resizeParent=1;resizeParentMax=0;resizeLast=0;collapsible=1;marginBottom=0;whiteSpace=wrap;html=1;" parent="1" vertex="1">
          <mxGeometry x="180" y="240" width="400" height="342" as="geometry" />
        </mxCell>
        <mxCell id="Rg9wagiexUnOvc4vePpl-17" value="- m_shapes : vector&amp;lt;Shape&amp;gt;" style="text;strokeColor=none;fillColor=none;align=left;verticalAlign=top;spacingLeft=4;spacingRight=4;overflow=hidden;rotatable=0;points=[[0,0.5],[1,0.5]];portConstraint=eastwest;whiteSpace=wrap;html=1;" parent="Rg9wagiexUnOvc4vePpl-16" vertex="1">
          <mxGeometry y="26" width="400" height="24" as="geometry" />
        </mxCell>
        <mxCell id="2IdYhjhQksEz0VN_lS5l-22" value="- m_canvas: ICanvas" style="text;strokeColor=none;fillColor=none;align=left;verticalAlign=top;spacingLeft=4;spacingRight=4;overflow=hidden;rotatable=0;points=[[0,0.5],[1,0.5]];portConstraint=eastwest;whiteSpace=wrap;html=1;" parent="Rg9wagiexUnOvc4vePpl-16" vertex="1">
          <mxGeometry y="50" width="400" height="24" as="geometry" />
        </mxCell>
        <mxCell id="Rg9wagiexUnOvc4vePpl-18" value="" style="line;strokeWidth=1;fillColor=none;align=left;verticalAlign=middle;spacingTop=-1;spacingLeft=3;spacingRight=3;rotatable=0;labelPosition=right;points=[];portConstraint=eastwest;strokeColor=inherit;" parent="Rg9wagiexUnOvc4vePpl-16" vertex="1">
          <mxGeometry y="74" width="400" height="8" as="geometry" />
        </mxCell>
        <mxCell id="Rg9wagiexUnOvc4vePpl-19" value="+ AddShape(id: string, color: string, type: string, params: string&lt;span style=&quot;background-color: initial;&quot;&gt;) : void&lt;/span&gt;" style="text;strokeColor=none;fillColor=none;align=left;verticalAlign=top;spacingLeft=4;spacingRight=4;overflow=hidden;rotatable=0;points=[[0,0.5],[1,0.5]];portConstraint=eastwest;whiteSpace=wrap;html=1;" parent="Rg9wagiexUnOvc4vePpl-16" vertex="1">
          <mxGeometry y="82" width="400" height="26" as="geometry" />
        </mxCell>
        <mxCell id="Rg9wagiexUnOvc4vePpl-26" value="+ MoveShape(id: string, dx: double, dy: double) : void" style="text;strokeColor=none;fillColor=none;align=left;verticalAlign=top;spacingLeft=4;spacingRight=4;overflow=hidden;rotatable=0;points=[[0,0.5],[1,0.5]];portConstraint=eastwest;whiteSpace=wrap;html=1;" parent="Rg9wagiexUnOvc4vePpl-16" vertex="1">
          <mxGeometry y="108" width="400" height="26" as="geometry" />
        </mxCell>
        <mxCell id="Rg9wagiexUnOvc4vePpl-31" value="+ MovePicture(dx: double, dy: double) : void" style="text;strokeColor=none;fillColor=none;align=left;verticalAlign=top;spacingLeft=4;spacingRight=4;overflow=hidden;rotatable=0;points=[[0,0.5],[1,0.5]];portConstraint=eastwest;whiteSpace=wrap;html=1;" parent="Rg9wagiexUnOvc4vePpl-16" vertex="1">
          <mxGeometry y="134" width="400" height="26" as="geometry" />
        </mxCell>
        <mxCell id="Rg9wagiexUnOvc4vePpl-32" value="+ DeleteShape(id: string) : void" style="text;strokeColor=none;fillColor=none;align=left;verticalAlign=top;spacingLeft=4;spacingRight=4;overflow=hidden;rotatable=0;points=[[0,0.5],[1,0.5]];portConstraint=eastwest;whiteSpace=wrap;html=1;" parent="Rg9wagiexUnOvc4vePpl-16" vertex="1">
          <mxGeometry y="160" width="400" height="26" as="geometry" />
        </mxCell>
        <mxCell id="Rg9wagiexUnOvc4vePpl-33" value="+ List(out: ostream) : void" style="text;strokeColor=none;fillColor=none;align=left;verticalAlign=top;spacingLeft=4;spacingRight=4;overflow=hidden;rotatable=0;points=[[0,0.5],[1,0.5]];portConstraint=eastwest;whiteSpace=wrap;html=1;" parent="Rg9wagiexUnOvc4vePpl-16" vertex="1">
          <mxGeometry y="186" width="400" height="26" as="geometry" />
        </mxCell>
        <mxCell id="Rg9wagiexUnOvc4vePpl-35" value="+ ChangeColor(id: string, color: string) : void" style="text;strokeColor=none;fillColor=none;align=left;verticalAlign=top;spacingLeft=4;spacingRight=4;overflow=hidden;rotatable=0;points=[[0,0.5],[1,0.5]];portConstraint=eastwest;whiteSpace=wrap;html=1;" parent="Rg9wagiexUnOvc4vePpl-16" vertex="1">
          <mxGeometry y="212" width="400" height="26" as="geometry" />
        </mxCell>
        <mxCell id="Rg9wagiexUnOvc4vePpl-36" value="+ ChangeShape(id: string, type: string, params: string) : void" style="text;strokeColor=none;fillColor=none;align=left;verticalAlign=top;spacingLeft=4;spacingRight=4;overflow=hidden;rotatable=0;points=[[0,0.5],[1,0.5]];portConstraint=eastwest;whiteSpace=wrap;html=1;" parent="Rg9wagiexUnOvc4vePpl-16" vertex="1">
          <mxGeometry y="238" width="400" height="26" as="geometry" />
        </mxCell>
        <mxCell id="Rg9wagiexUnOvc4vePpl-37" value="+ DrawShape(id: string) : void" style="text;strokeColor=none;fillColor=none;align=left;verticalAlign=top;spacingLeft=4;spacingRight=4;overflow=hidden;rotatable=0;points=[[0,0.5],[1,0.5]];portConstraint=eastwest;whiteSpace=wrap;html=1;" parent="Rg9wagiexUnOvc4vePpl-16" vertex="1">
          <mxGeometry y="264" width="400" height="26" as="geometry" />
        </mxCell>
        <mxCell id="Rg9wagiexUnOvc4vePpl-38" value="+ DrawPicture() : void" style="text;strokeColor=none;fillColor=none;align=left;verticalAlign=top;spacingLeft=4;spacingRight=4;overflow=hidden;rotatable=0;points=[[0,0.5],[1,0.5]];portConstraint=eastwest;whiteSpace=wrap;html=1;" parent="Rg9wagiexUnOvc4vePpl-16" vertex="1">
          <mxGeometry y="290" width="400" height="26" as="geometry" />
        </mxCell>
        <mxCell id="2IdYhjhQksEz0VN_lS5l-107" value="+ SetCanvas(canvas: ICanvas) : void" style="text;strokeColor=none;fillColor=none;align=left;verticalAlign=top;spacingLeft=4;spacingRight=4;overflow=hidden;rotatable=0;points=[[0,0.5],[1,0.5]];portConstraint=eastwest;whiteSpace=wrap;html=1;" parent="Rg9wagiexUnOvc4vePpl-16" vertex="1">
          <mxGeometry y="316" width="400" height="26" as="geometry" />
        </mxCell>
        <mxCell id="Rg9wagiexUnOvc4vePpl-21" value="Shape" style="swimlane;fontStyle=1;align=center;verticalAlign=top;childLayout=stackLayout;horizontal=1;startSize=26;horizontalStack=0;resizeParent=1;resizeParentMax=0;resizeLast=0;collapsible=1;marginBottom=0;whiteSpace=wrap;html=1;" parent="1" vertex="1">
          <mxGeometry x="650" y="286" width="320" height="216" as="geometry" />
        </mxCell>
        <mxCell id="Rg9wagiexUnOvc4vePpl-22" value="- m_Color: Color" style="text;strokeColor=none;fillColor=none;align=left;verticalAlign=top;spacingLeft=4;spacingRight=4;overflow=hidden;rotatable=0;points=[[0,0.5],[1,0.5]];portConstraint=eastwest;whiteSpace=wrap;html=1;" parent="Rg9wagiexUnOvc4vePpl-21" vertex="1">
          <mxGeometry y="26" width="320" height="26" as="geometry" />
        </mxCell>
        <mxCell id="Rg9wagiexUnOvc4vePpl-53" value="- m_drawingStrategy: IDrawingStrategy" style="text;strokeColor=none;fillColor=none;align=left;verticalAlign=top;spacingLeft=4;spacingRight=4;overflow=hidden;rotatable=0;points=[[0,0.5],[1,0.5]];portConstraint=eastwest;whiteSpace=wrap;html=1;" parent="Rg9wagiexUnOvc4vePpl-21" vertex="1">
          <mxGeometry y="52" width="320" height="26" as="geometry" />
        </mxCell>
        <mxCell id="Rg9wagiexUnOvc4vePpl-23" value="" style="line;strokeWidth=1;fillColor=none;align=left;verticalAlign=middle;spacingTop=-1;spacingLeft=3;spacingRight=3;rotatable=0;labelPosition=right;points=[];portConstraint=eastwest;strokeColor=inherit;" parent="Rg9wagiexUnOvc4vePpl-21" vertex="1">
          <mxGeometry y="78" width="320" height="8" as="geometry" />
        </mxCell>
        <mxCell id="Rg9wagiexUnOvc4vePpl-57" value="+ Draw(canvas: ICanvas): void" style="text;strokeColor=none;fillColor=none;align=left;verticalAlign=top;spacingLeft=4;spacingRight=4;overflow=hidden;rotatable=0;points=[[0,0.5],[1,0.5]];portConstraint=eastwest;whiteSpace=wrap;html=1;" parent="Rg9wagiexUnOvc4vePpl-21" vertex="1">
          <mxGeometry y="86" width="320" height="26" as="geometry" />
        </mxCell>
        <mxCell id="Rg9wagiexUnOvc4vePpl-58" value="+ SetColor(color: Color): void" style="text;strokeColor=none;fillColor=none;align=left;verticalAlign=top;spacingLeft=4;spacingRight=4;overflow=hidden;rotatable=0;points=[[0,0.5],[1,0.5]];portConstraint=eastwest;whiteSpace=wrap;html=1;" parent="Rg9wagiexUnOvc4vePpl-21" vertex="1">
          <mxGeometry y="112" width="320" height="26" as="geometry" />
        </mxCell>
        <mxCell id="Rg9wagiexUnOvc4vePpl-59" value="+ GetColor(): Color" style="text;strokeColor=none;fillColor=none;align=left;verticalAlign=top;spacingLeft=4;spacingRight=4;overflow=hidden;rotatable=0;points=[[0,0.5],[1,0.5]];portConstraint=eastwest;whiteSpace=wrap;html=1;" parent="Rg9wagiexUnOvc4vePpl-21" vertex="1">
          <mxGeometry y="138" width="320" height="26" as="geometry" />
        </mxCell>
        <mxCell id="Rg9wagiexUnOvc4vePpl-24" value="+ SetDrawingStrategy(strategy: IDrawingStrategy): void" style="text;strokeColor=none;fillColor=none;align=left;verticalAlign=top;spacingLeft=4;spacingRight=4;overflow=hidden;rotatable=0;points=[[0,0.5],[1,0.5]];portConstraint=eastwest;whiteSpace=wrap;html=1;" parent="Rg9wagiexUnOvc4vePpl-21" vertex="1">
          <mxGeometry y="164" width="320" height="26" as="geometry" />
        </mxCell>
        <mxCell id="2IdYhjhQksEz0VN_lS5l-4" value="+ ToString(): string" style="text;strokeColor=none;fillColor=none;align=left;verticalAlign=top;spacingLeft=4;spacingRight=4;overflow=hidden;rotatable=0;points=[[0,0.5],[1,0.5]];portConstraint=eastwest;whiteSpace=wrap;html=1;" parent="Rg9wagiexUnOvc4vePpl-21" vertex="1">
          <mxGeometry y="190" width="320" height="26" as="geometry" />
        </mxCell>
        <mxCell id="Rg9wagiexUnOvc4vePpl-25" value="" style="endArrow=diamondThin;endFill=1;endSize=24;html=1;rounded=0;" parent="1" source="Rg9wagiexUnOvc4vePpl-21" target="Rg9wagiexUnOvc4vePpl-16" edge="1">
          <mxGeometry width="160" relative="1" as="geometry">
            <mxPoint x="420" y="260" as="sourcePoint" />
            <mxPoint x="580" y="260" as="targetPoint" />
          </mxGeometry>
        </mxCell>
        <mxCell id="Rg9wagiexUnOvc4vePpl-42" value="&lt;&lt;interface&gt;&gt;&#xa;ICanvas" style="swimlane;fontStyle=3;align=center;verticalAlign=top;childLayout=stackLayout;horizontal=1;startSize=40;horizontalStack=0;resizeParent=1;resizeParentMax=0;resizeLast=0;collapsible=1;marginBottom=0;" parent="1" vertex="1">
          <mxGeometry x="200" y="670" width="370" height="170" as="geometry" />
        </mxCell>
        <mxCell id="Rg9wagiexUnOvc4vePpl-43" value="+ MoveTo(x: double, y: double)" style="text;strokeColor=none;fillColor=none;align=left;verticalAlign=top;spacingLeft=4;spacingRight=4;overflow=hidden;rotatable=0;points=[[0,0.5],[1,0.5]];portConstraint=eastwest;fontStyle=2" parent="Rg9wagiexUnOvc4vePpl-42" vertex="1">
          <mxGeometry y="40" width="370" height="26" as="geometry" />
        </mxCell>
        <mxCell id="Rg9wagiexUnOvc4vePpl-44" value="+ SetColor(color: Color)" style="text;strokeColor=none;fillColor=none;align=left;verticalAlign=top;spacingLeft=4;spacingRight=4;overflow=hidden;rotatable=0;points=[[0,0.5],[1,0.5]];portConstraint=eastwest;fontStyle=2" parent="Rg9wagiexUnOvc4vePpl-42" vertex="1">
          <mxGeometry y="66" width="370" height="26" as="geometry" />
        </mxCell>
        <mxCell id="Rg9wagiexUnOvc4vePpl-45" value="+ LineTo(x: double, y: double)" style="text;strokeColor=none;fillColor=none;align=left;verticalAlign=top;spacingLeft=4;spacingRight=4;overflow=hidden;rotatable=0;points=[[0,0.5],[1,0.5]];portConstraint=eastwest;fontStyle=2" parent="Rg9wagiexUnOvc4vePpl-42" vertex="1">
          <mxGeometry y="92" width="370" height="26" as="geometry" />
        </mxCell>
        <mxCell id="Rg9wagiexUnOvc4vePpl-46" value="+ DrawEpplise(cx: double, cy: double, rx: double, ry: double)" style="text;strokeColor=none;fillColor=none;align=left;verticalAlign=top;spacingLeft=4;spacingRight=4;overflow=hidden;rotatable=0;points=[[0,0.5],[1,0.5]];portConstraint=eastwest;fontStyle=2" parent="Rg9wagiexUnOvc4vePpl-42" vertex="1">
          <mxGeometry y="118" width="370" height="26" as="geometry" />
        </mxCell>
        <mxCell id="Rg9wagiexUnOvc4vePpl-47" value="+ DrawText(left: double, top: double, fontSize: int, text: string)" style="text;strokeColor=none;fillColor=none;align=left;verticalAlign=top;spacingLeft=4;spacingRight=4;overflow=hidden;rotatable=0;points=[[0,0.5],[1,0.5]];portConstraint=eastwest;fontStyle=2" parent="Rg9wagiexUnOvc4vePpl-42" vertex="1">
          <mxGeometry y="144" width="370" height="26" as="geometry" />
        </mxCell>
        <mxCell id="Rg9wagiexUnOvc4vePpl-54" value="&lt;div&gt;&lt;i&gt;&amp;lt;&amp;lt;interface&amp;gt;&lt;/i&gt;&lt;/div&gt;&lt;i&gt;IDrawingStrategy&lt;/i&gt;" style="swimlane;fontStyle=1;align=center;verticalAlign=top;childLayout=stackLayout;horizontal=1;startSize=40;horizontalStack=0;resizeParent=1;resizeParentMax=0;resizeLast=0;collapsible=1;marginBottom=0;whiteSpace=wrap;html=1;" parent="1" vertex="1">
          <mxGeometry x="1050" y="286" width="230" height="144" as="geometry" />
        </mxCell>
        <mxCell id="Rg9wagiexUnOvc4vePpl-55" value="&lt;i&gt;+ Draw(canvas: ICanvas): void&lt;/i&gt;" style="text;strokeColor=none;fillColor=none;align=left;verticalAlign=top;spacingLeft=4;spacingRight=4;overflow=hidden;rotatable=0;points=[[0,0.5],[1,0.5]];portConstraint=eastwest;whiteSpace=wrap;html=1;" parent="Rg9wagiexUnOvc4vePpl-54" vertex="1">
          <mxGeometry y="40" width="230" height="26" as="geometry" />
        </mxCell>
        <mxCell id="2IdYhjhQksEz0VN_lS5l-21" value="&lt;i&gt;+ MoveTo(dx: double, dy: double): void&lt;/i&gt;" style="text;strokeColor=none;fillColor=none;align=left;verticalAlign=top;spacingLeft=4;spacingRight=4;overflow=hidden;rotatable=0;points=[[0,0.5],[1,0.5]];portConstraint=eastwest;whiteSpace=wrap;html=1;" parent="Rg9wagiexUnOvc4vePpl-54" vertex="1">
          <mxGeometry y="66" width="230" height="26" as="geometry" />
        </mxCell>
        <mxCell id="2IdYhjhQksEz0VN_lS5l-5" value="&lt;i&gt;+ GetType(): string&lt;/i&gt;" style="text;strokeColor=none;fillColor=none;align=left;verticalAlign=top;spacingLeft=4;spacingRight=4;overflow=hidden;rotatable=0;points=[[0,0.5],[1,0.5]];portConstraint=eastwest;whiteSpace=wrap;html=1;" parent="Rg9wagiexUnOvc4vePpl-54" vertex="1">
          <mxGeometry y="92" width="230" height="26" as="geometry" />
        </mxCell>
        <mxCell id="OTlooxgMmgsXdkru4W10-1" value="&lt;i&gt;+ GetParams(): string&lt;/i&gt;" style="text;strokeColor=none;fillColor=none;align=left;verticalAlign=top;spacingLeft=4;spacingRight=4;overflow=hidden;rotatable=0;points=[[0,0.5],[1,0.5]];portConstraint=eastwest;whiteSpace=wrap;html=1;" vertex="1" parent="Rg9wagiexUnOvc4vePpl-54">
          <mxGeometry y="118" width="230" height="26" as="geometry" />
        </mxCell>
        <mxCell id="Rg9wagiexUnOvc4vePpl-56" value="" style="endArrow=diamondThin;endFill=1;endSize=24;html=1;rounded=0;" parent="1" source="Rg9wagiexUnOvc4vePpl-54" target="Rg9wagiexUnOvc4vePpl-21" edge="1">
          <mxGeometry width="160" relative="1" as="geometry">
            <mxPoint x="980" y="310" as="sourcePoint" />
            <mxPoint x="1140" y="310" as="targetPoint" />
          </mxGeometry>
        </mxCell>
        <mxCell id="2IdYhjhQksEz0VN_lS5l-2" value="" style="endArrow=diamondThin;endFill=1;endSize=24;html=1;rounded=0;" parent="1" source="Rg9wagiexUnOvc4vePpl-10" target="Rg9wagiexUnOvc4vePpl-2" edge="1">
          <mxGeometry width="160" relative="1" as="geometry">
            <mxPoint x="520" y="290" as="sourcePoint" />
            <mxPoint x="680" y="290" as="targetPoint" />
          </mxGeometry>
        </mxCell>
        <mxCell id="2IdYhjhQksEz0VN_lS5l-3" value="" style="endArrow=diamondThin;endFill=1;endSize=24;html=1;rounded=0;" parent="1" source="Rg9wagiexUnOvc4vePpl-16" target="Rg9wagiexUnOvc4vePpl-2" edge="1">
          <mxGeometry width="160" relative="1" as="geometry">
            <mxPoint x="490" y="117" as="sourcePoint" />
            <mxPoint x="350" y="98" as="targetPoint" />
          </mxGeometry>
        </mxCell>
        <mxCell id="2IdYhjhQksEz0VN_lS5l-10" value="Color" style="swimlane;fontStyle=1;align=center;verticalAlign=top;childLayout=stackLayout;horizontal=1;startSize=26;horizontalStack=0;resizeParent=1;resizeParentMax=0;resizeLast=0;collapsible=1;marginBottom=0;whiteSpace=wrap;html=1;" parent="1" vertex="1">
          <mxGeometry x="710" y="660" width="160" height="216" as="geometry" />
        </mxCell>
        <mxCell id="2IdYhjhQksEz0VN_lS5l-11" value="- m_r: unsigned char" style="text;strokeColor=none;fillColor=none;align=left;verticalAlign=top;spacingLeft=4;spacingRight=4;overflow=hidden;rotatable=0;points=[[0,0.5],[1,0.5]];portConstraint=eastwest;whiteSpace=wrap;html=1;" parent="2IdYhjhQksEz0VN_lS5l-10" vertex="1">
          <mxGeometry y="26" width="160" height="26" as="geometry" />
        </mxCell>
        <mxCell id="2IdYhjhQksEz0VN_lS5l-14" value="- m_g: unsigned char" style="text;strokeColor=none;fillColor=none;align=left;verticalAlign=top;spacingLeft=4;spacingRight=4;overflow=hidden;rotatable=0;points=[[0,0.5],[1,0.5]];portConstraint=eastwest;whiteSpace=wrap;html=1;" parent="2IdYhjhQksEz0VN_lS5l-10" vertex="1">
          <mxGeometry y="52" width="160" height="26" as="geometry" />
        </mxCell>
        <mxCell id="2IdYhjhQksEz0VN_lS5l-15" value="- m_b: unsigned char" style="text;strokeColor=none;fillColor=none;align=left;verticalAlign=top;spacingLeft=4;spacingRight=4;overflow=hidden;rotatable=0;points=[[0,0.5],[1,0.5]];portConstraint=eastwest;whiteSpace=wrap;html=1;" parent="2IdYhjhQksEz0VN_lS5l-10" vertex="1">
          <mxGeometry y="78" width="160" height="26" as="geometry" />
        </mxCell>
        <mxCell id="2IdYhjhQksEz0VN_lS5l-12" value="" style="line;strokeWidth=1;fillColor=none;align=left;verticalAlign=middle;spacingTop=-1;spacingLeft=3;spacingRight=3;rotatable=0;labelPosition=right;points=[];portConstraint=eastwest;strokeColor=inherit;" parent="2IdYhjhQksEz0VN_lS5l-10" vertex="1">
          <mxGeometry y="104" width="160" height="8" as="geometry" />
        </mxCell>
        <mxCell id="2IdYhjhQksEz0VN_lS5l-16" value="+ GetR: unsigned char" style="text;strokeColor=none;fillColor=none;align=left;verticalAlign=top;spacingLeft=4;spacingRight=4;overflow=hidden;rotatable=0;points=[[0,0.5],[1,0.5]];portConstraint=eastwest;whiteSpace=wrap;html=1;" parent="2IdYhjhQksEz0VN_lS5l-10" vertex="1">
          <mxGeometry y="112" width="160" height="26" as="geometry" />
        </mxCell>
        <mxCell id="2IdYhjhQksEz0VN_lS5l-17" value="+ GetG: unsigned char" style="text;strokeColor=none;fillColor=none;align=left;verticalAlign=top;spacingLeft=4;spacingRight=4;overflow=hidden;rotatable=0;points=[[0,0.5],[1,0.5]];portConstraint=eastwest;whiteSpace=wrap;html=1;" parent="2IdYhjhQksEz0VN_lS5l-10" vertex="1">
          <mxGeometry y="138" width="160" height="26" as="geometry" />
        </mxCell>
        <mxCell id="2IdYhjhQksEz0VN_lS5l-13" value="+ GetB: unsigned char" style="text;strokeColor=none;fillColor=none;align=left;verticalAlign=top;spacingLeft=4;spacingRight=4;overflow=hidden;rotatable=0;points=[[0,0.5],[1,0.5]];portConstraint=eastwest;whiteSpace=wrap;html=1;" parent="2IdYhjhQksEz0VN_lS5l-10" vertex="1">
          <mxGeometry y="164" width="160" height="26" as="geometry" />
        </mxCell>
        <mxCell id="2IdYhjhQksEz0VN_lS5l-18" value="+ GetInHex: string" style="text;strokeColor=none;fillColor=none;align=left;verticalAlign=top;spacingLeft=4;spacingRight=4;overflow=hidden;rotatable=0;points=[[0,0.5],[1,0.5]];portConstraint=eastwest;whiteSpace=wrap;html=1;" parent="2IdYhjhQksEz0VN_lS5l-10" vertex="1">
          <mxGeometry y="190" width="160" height="26" as="geometry" />
        </mxCell>
        <mxCell id="2IdYhjhQksEz0VN_lS5l-19" value="" style="endArrow=diamondThin;endFill=1;endSize=24;html=1;rounded=0;" parent="1" source="2IdYhjhQksEz0VN_lS5l-10" target="Rg9wagiexUnOvc4vePpl-21" edge="1">
          <mxGeometry width="160" relative="1" as="geometry">
            <mxPoint x="820" y="540" as="sourcePoint" />
            <mxPoint x="980" y="540" as="targetPoint" />
          </mxGeometry>
        </mxCell>
        <mxCell id="2IdYhjhQksEz0VN_lS5l-23" value="Use" style="endArrow=open;endSize=12;dashed=1;html=1;rounded=0;" parent="1" source="Rg9wagiexUnOvc4vePpl-42" target="2IdYhjhQksEz0VN_lS5l-10" edge="1">
          <mxGeometry width="160" relative="1" as="geometry">
            <mxPoint x="500" y="650" as="sourcePoint" />
            <mxPoint x="660" y="650" as="targetPoint" />
          </mxGeometry>
        </mxCell>
        <mxCell id="2IdYhjhQksEz0VN_lS5l-24" value="Use" style="endArrow=open;endSize=12;dashed=1;html=1;rounded=0;" parent="1" source="Rg9wagiexUnOvc4vePpl-16" target="2IdYhjhQksEz0VN_lS5l-10" edge="1">
          <mxGeometry width="160" relative="1" as="geometry">
            <mxPoint x="500" y="650" as="sourcePoint" />
            <mxPoint x="660" y="650" as="targetPoint" />
          </mxGeometry>
        </mxCell>
        <mxCell id="2IdYhjhQksEz0VN_lS5l-25" value="" style="endArrow=diamondThin;endFill=0;endSize=24;html=1;rounded=0;" parent="1" source="Rg9wagiexUnOvc4vePpl-42" target="Rg9wagiexUnOvc4vePpl-16" edge="1">
          <mxGeometry width="160" relative="1" as="geometry">
            <mxPoint x="530" y="520" as="sourcePoint" />
            <mxPoint x="690" y="520" as="targetPoint" />
          </mxGeometry>
        </mxCell>
        <mxCell id="2IdYhjhQksEz0VN_lS5l-26" value="Use" style="endArrow=open;endSize=12;dashed=1;html=1;rounded=0;" parent="1" source="Rg9wagiexUnOvc4vePpl-21" target="Rg9wagiexUnOvc4vePpl-42" edge="1">
          <mxGeometry width="160" relative="1" as="geometry">
            <mxPoint x="530" y="590" as="sourcePoint" />
            <mxPoint x="690" y="590" as="targetPoint" />
          </mxGeometry>
        </mxCell>
        <mxCell id="2IdYhjhQksEz0VN_lS5l-27" value="Use" style="endArrow=open;endSize=12;dashed=1;html=1;rounded=0;" parent="1" source="Rg9wagiexUnOvc4vePpl-16" target="Rg9wagiexUnOvc4vePpl-54" edge="1">
          <mxGeometry width="160" relative="1" as="geometry">
            <mxPoint x="693" y="512" as="sourcePoint" />
            <mxPoint x="495" y="680" as="targetPoint" />
            <Array as="points">
              <mxPoint x="630" y="250" />
              <mxPoint x="1165" y="250" />
            </Array>
          </mxGeometry>
        </mxCell>
        <mxCell id="2IdYhjhQksEz0VN_lS5l-32" value="DrawCircle" style="swimlane;fontStyle=1;align=center;verticalAlign=top;childLayout=stackLayout;horizontal=1;startSize=26;horizontalStack=0;resizeParent=1;resizeParentMax=0;resizeLast=0;collapsible=1;marginBottom=0;whiteSpace=wrap;html=1;" parent="1" vertex="1">
          <mxGeometry x="1120" y="510" width="220" height="216" as="geometry" />
        </mxCell>
        <mxCell id="2IdYhjhQksEz0VN_lS5l-36" value="- x: double" style="text;strokeColor=none;fillColor=none;align=left;verticalAlign=top;spacingLeft=4;spacingRight=4;overflow=hidden;rotatable=0;points=[[0,0.5],[1,0.5]];portConstraint=eastwest;whiteSpace=wrap;html=1;" parent="2IdYhjhQksEz0VN_lS5l-32" vertex="1">
          <mxGeometry y="26" width="220" height="26" as="geometry" />
        </mxCell>
        <mxCell id="2IdYhjhQksEz0VN_lS5l-37" value="- y: double" style="text;strokeColor=none;fillColor=none;align=left;verticalAlign=top;spacingLeft=4;spacingRight=4;overflow=hidden;rotatable=0;points=[[0,0.5],[1,0.5]];portConstraint=eastwest;whiteSpace=wrap;html=1;" parent="2IdYhjhQksEz0VN_lS5l-32" vertex="1">
          <mxGeometry y="52" width="220" height="26" as="geometry" />
        </mxCell>
        <mxCell id="2IdYhjhQksEz0VN_lS5l-33" value="- r: double" style="text;strokeColor=none;fillColor=none;align=left;verticalAlign=top;spacingLeft=4;spacingRight=4;overflow=hidden;rotatable=0;points=[[0,0.5],[1,0.5]];portConstraint=eastwest;whiteSpace=wrap;html=1;" parent="2IdYhjhQksEz0VN_lS5l-32" vertex="1">
          <mxGeometry y="78" width="220" height="26" as="geometry" />
        </mxCell>
        <mxCell id="2IdYhjhQksEz0VN_lS5l-34" value="" style="line;strokeWidth=1;fillColor=none;align=left;verticalAlign=middle;spacingTop=-1;spacingLeft=3;spacingRight=3;rotatable=0;labelPosition=right;points=[];portConstraint=eastwest;strokeColor=inherit;" parent="2IdYhjhQksEz0VN_lS5l-32" vertex="1">
          <mxGeometry y="104" width="220" height="8" as="geometry" />
        </mxCell>
        <mxCell id="2IdYhjhQksEz0VN_lS5l-40" value="+ Draw(canvas: ICanvas): void" style="text;strokeColor=none;fillColor=none;align=left;verticalAlign=top;spacingLeft=4;spacingRight=4;overflow=hidden;rotatable=0;points=[[0,0.5],[1,0.5]];portConstraint=eastwest;whiteSpace=wrap;html=1;" parent="2IdYhjhQksEz0VN_lS5l-32" vertex="1">
          <mxGeometry y="112" width="220" height="26" as="geometry" />
        </mxCell>
        <mxCell id="2IdYhjhQksEz0VN_lS5l-41" value="&lt;i&gt;+ MoveTo(dx: double, dy: double): void&lt;/i&gt;" style="text;strokeColor=none;fillColor=none;align=left;verticalAlign=top;spacingLeft=4;spacingRight=4;overflow=hidden;rotatable=0;points=[[0,0.5],[1,0.5]];portConstraint=eastwest;whiteSpace=wrap;html=1;" parent="2IdYhjhQksEz0VN_lS5l-32" vertex="1">
          <mxGeometry y="138" width="220" height="26" as="geometry" />
        </mxCell>
        <mxCell id="2IdYhjhQksEz0VN_lS5l-42" value="+ GetType(): string" style="text;strokeColor=none;fillColor=none;align=left;verticalAlign=top;spacingLeft=4;spacingRight=4;overflow=hidden;rotatable=0;points=[[0,0.5],[1,0.5]];portConstraint=eastwest;whiteSpace=wrap;html=1;" parent="2IdYhjhQksEz0VN_lS5l-32" vertex="1">
          <mxGeometry y="164" width="220" height="26" as="geometry" />
        </mxCell>
        <mxCell id="OTlooxgMmgsXdkru4W10-2" value="&lt;i&gt;+ GetParams(): string&lt;/i&gt;" style="text;strokeColor=none;fillColor=none;align=left;verticalAlign=top;spacingLeft=4;spacingRight=4;overflow=hidden;rotatable=0;points=[[0,0.5],[1,0.5]];portConstraint=eastwest;whiteSpace=wrap;html=1;" vertex="1" parent="2IdYhjhQksEz0VN_lS5l-32">
          <mxGeometry y="190" width="220" height="26" as="geometry" />
        </mxCell>
        <mxCell id="2IdYhjhQksEz0VN_lS5l-43" value="DrawRectangle" style="swimlane;fontStyle=1;align=center;verticalAlign=top;childLayout=stackLayout;horizontal=1;startSize=26;horizontalStack=0;resizeParent=1;resizeParentMax=0;resizeLast=0;collapsible=1;marginBottom=0;whiteSpace=wrap;html=1;" parent="1" vertex="1">
          <mxGeometry x="1351" y="510" width="220" height="242" as="geometry" />
        </mxCell>
        <mxCell id="2IdYhjhQksEz0VN_lS5l-44" value="- left: double" style="text;strokeColor=none;fillColor=none;align=left;verticalAlign=top;spacingLeft=4;spacingRight=4;overflow=hidden;rotatable=0;points=[[0,0.5],[1,0.5]];portConstraint=eastwest;whiteSpace=wrap;html=1;" parent="2IdYhjhQksEz0VN_lS5l-43" vertex="1">
          <mxGeometry y="26" width="220" height="26" as="geometry" />
        </mxCell>
        <mxCell id="2IdYhjhQksEz0VN_lS5l-45" value="- top: double" style="text;strokeColor=none;fillColor=none;align=left;verticalAlign=top;spacingLeft=4;spacingRight=4;overflow=hidden;rotatable=0;points=[[0,0.5],[1,0.5]];portConstraint=eastwest;whiteSpace=wrap;html=1;" parent="2IdYhjhQksEz0VN_lS5l-43" vertex="1">
          <mxGeometry y="52" width="220" height="26" as="geometry" />
        </mxCell>
        <mxCell id="2IdYhjhQksEz0VN_lS5l-46" value="- width: double" style="text;strokeColor=none;fillColor=none;align=left;verticalAlign=top;spacingLeft=4;spacingRight=4;overflow=hidden;rotatable=0;points=[[0,0.5],[1,0.5]];portConstraint=eastwest;whiteSpace=wrap;html=1;" parent="2IdYhjhQksEz0VN_lS5l-43" vertex="1">
          <mxGeometry y="78" width="220" height="26" as="geometry" />
        </mxCell>
        <mxCell id="2IdYhjhQksEz0VN_lS5l-59" value="- height: double" style="text;strokeColor=none;fillColor=none;align=left;verticalAlign=top;spacingLeft=4;spacingRight=4;overflow=hidden;rotatable=0;points=[[0,0.5],[1,0.5]];portConstraint=eastwest;whiteSpace=wrap;html=1;" parent="2IdYhjhQksEz0VN_lS5l-43" vertex="1">
          <mxGeometry y="104" width="220" height="26" as="geometry" />
        </mxCell>
        <mxCell id="2IdYhjhQksEz0VN_lS5l-47" value="" style="line;strokeWidth=1;fillColor=none;align=left;verticalAlign=middle;spacingTop=-1;spacingLeft=3;spacingRight=3;rotatable=0;labelPosition=right;points=[];portConstraint=eastwest;strokeColor=inherit;" parent="2IdYhjhQksEz0VN_lS5l-43" vertex="1">
          <mxGeometry y="130" width="220" height="8" as="geometry" />
        </mxCell>
        <mxCell id="2IdYhjhQksEz0VN_lS5l-48" value="+ Draw(canvas: ICanvas): void" style="text;strokeColor=none;fillColor=none;align=left;verticalAlign=top;spacingLeft=4;spacingRight=4;overflow=hidden;rotatable=0;points=[[0,0.5],[1,0.5]];portConstraint=eastwest;whiteSpace=wrap;html=1;" parent="2IdYhjhQksEz0VN_lS5l-43" vertex="1">
          <mxGeometry y="138" width="220" height="26" as="geometry" />
        </mxCell>
        <mxCell id="2IdYhjhQksEz0VN_lS5l-49" value="&lt;i&gt;+ MoveTo(dx: double, dy: double): void&lt;/i&gt;" style="text;strokeColor=none;fillColor=none;align=left;verticalAlign=top;spacingLeft=4;spacingRight=4;overflow=hidden;rotatable=0;points=[[0,0.5],[1,0.5]];portConstraint=eastwest;whiteSpace=wrap;html=1;" parent="2IdYhjhQksEz0VN_lS5l-43" vertex="1">
          <mxGeometry y="164" width="220" height="26" as="geometry" />
        </mxCell>
        <mxCell id="2IdYhjhQksEz0VN_lS5l-50" value="+ GetType(): string" style="text;strokeColor=none;fillColor=none;align=left;verticalAlign=top;spacingLeft=4;spacingRight=4;overflow=hidden;rotatable=0;points=[[0,0.5],[1,0.5]];portConstraint=eastwest;whiteSpace=wrap;html=1;" parent="2IdYhjhQksEz0VN_lS5l-43" vertex="1">
          <mxGeometry y="190" width="220" height="26" as="geometry" />
        </mxCell>
        <mxCell id="OTlooxgMmgsXdkru4W10-3" value="&lt;i&gt;+ GetParams(): string&lt;/i&gt;" style="text;strokeColor=none;fillColor=none;align=left;verticalAlign=top;spacingLeft=4;spacingRight=4;overflow=hidden;rotatable=0;points=[[0,0.5],[1,0.5]];portConstraint=eastwest;whiteSpace=wrap;html=1;" vertex="1" parent="2IdYhjhQksEz0VN_lS5l-43">
          <mxGeometry y="216" width="220" height="26" as="geometry" />
        </mxCell>
        <mxCell id="2IdYhjhQksEz0VN_lS5l-60" value="" style="endArrow=block;dashed=1;endFill=0;endSize=12;html=1;rounded=0;" parent="1" source="2IdYhjhQksEz0VN_lS5l-32" target="Rg9wagiexUnOvc4vePpl-54" edge="1">
          <mxGeometry width="160" relative="1" as="geometry">
            <mxPoint x="1270" y="630" as="sourcePoint" />
            <mxPoint x="1430" y="630" as="targetPoint" />
            <Array as="points">
              <mxPoint x="1230" y="450" />
              <mxPoint x="1165" y="450" />
            </Array>
          </mxGeometry>
        </mxCell>
        <mxCell id="2IdYhjhQksEz0VN_lS5l-61" value="" style="endArrow=block;dashed=1;endFill=0;endSize=12;html=1;rounded=0;" parent="1" source="2IdYhjhQksEz0VN_lS5l-43" target="Rg9wagiexUnOvc4vePpl-54" edge="1">
          <mxGeometry width="160" relative="1" as="geometry">
            <mxPoint x="1270" y="630" as="sourcePoint" />
            <mxPoint x="1430" y="630" as="targetPoint" />
            <Array as="points">
              <mxPoint x="1461" y="450" />
              <mxPoint x="1165" y="450" />
            </Array>
          </mxGeometry>
        </mxCell>
        <mxCell id="2IdYhjhQksEz0VN_lS5l-62" value="DrawTriangle" style="swimlane;fontStyle=1;align=center;verticalAlign=top;childLayout=stackLayout;horizontal=1;startSize=26;horizontalStack=0;resizeParent=1;resizeParentMax=0;resizeLast=0;collapsible=1;marginBottom=0;whiteSpace=wrap;html=1;" parent="1" vertex="1">
          <mxGeometry x="1590" y="510" width="220" height="294" as="geometry" />
        </mxCell>
        <mxCell id="2IdYhjhQksEz0VN_lS5l-63" value="- x1: double" style="text;strokeColor=none;fillColor=none;align=left;verticalAlign=top;spacingLeft=4;spacingRight=4;overflow=hidden;rotatable=0;points=[[0,0.5],[1,0.5]];portConstraint=eastwest;whiteSpace=wrap;html=1;" parent="2IdYhjhQksEz0VN_lS5l-62" vertex="1">
          <mxGeometry y="26" width="220" height="26" as="geometry" />
        </mxCell>
        <mxCell id="2IdYhjhQksEz0VN_lS5l-64" value="- y1: double" style="text;strokeColor=none;fillColor=none;align=left;verticalAlign=top;spacingLeft=4;spacingRight=4;overflow=hidden;rotatable=0;points=[[0,0.5],[1,0.5]];portConstraint=eastwest;whiteSpace=wrap;html=1;" parent="2IdYhjhQksEz0VN_lS5l-62" vertex="1">
          <mxGeometry y="52" width="220" height="26" as="geometry" />
        </mxCell>
        <mxCell id="2IdYhjhQksEz0VN_lS5l-65" value="- x2: double" style="text;strokeColor=none;fillColor=none;align=left;verticalAlign=top;spacingLeft=4;spacingRight=4;overflow=hidden;rotatable=0;points=[[0,0.5],[1,0.5]];portConstraint=eastwest;whiteSpace=wrap;html=1;" parent="2IdYhjhQksEz0VN_lS5l-62" vertex="1">
          <mxGeometry y="78" width="220" height="26" as="geometry" />
        </mxCell>
        <mxCell id="2IdYhjhQksEz0VN_lS5l-66" value="- y2: double" style="text;strokeColor=none;fillColor=none;align=left;verticalAlign=top;spacingLeft=4;spacingRight=4;overflow=hidden;rotatable=0;points=[[0,0.5],[1,0.5]];portConstraint=eastwest;whiteSpace=wrap;html=1;" parent="2IdYhjhQksEz0VN_lS5l-62" vertex="1">
          <mxGeometry y="104" width="220" height="26" as="geometry" />
        </mxCell>
        <mxCell id="2IdYhjhQksEz0VN_lS5l-90" value="- x3: double" style="text;strokeColor=none;fillColor=none;align=left;verticalAlign=top;spacingLeft=4;spacingRight=4;overflow=hidden;rotatable=0;points=[[0,0.5],[1,0.5]];portConstraint=eastwest;whiteSpace=wrap;html=1;" parent="2IdYhjhQksEz0VN_lS5l-62" vertex="1">
          <mxGeometry y="130" width="220" height="26" as="geometry" />
        </mxCell>
        <mxCell id="2IdYhjhQksEz0VN_lS5l-91" value="- y3: double" style="text;strokeColor=none;fillColor=none;align=left;verticalAlign=top;spacingLeft=4;spacingRight=4;overflow=hidden;rotatable=0;points=[[0,0.5],[1,0.5]];portConstraint=eastwest;whiteSpace=wrap;html=1;" parent="2IdYhjhQksEz0VN_lS5l-62" vertex="1">
          <mxGeometry y="156" width="220" height="26" as="geometry" />
        </mxCell>
        <mxCell id="2IdYhjhQksEz0VN_lS5l-67" value="" style="line;strokeWidth=1;fillColor=none;align=left;verticalAlign=middle;spacingTop=-1;spacingLeft=3;spacingRight=3;rotatable=0;labelPosition=right;points=[];portConstraint=eastwest;strokeColor=inherit;" parent="2IdYhjhQksEz0VN_lS5l-62" vertex="1">
          <mxGeometry y="182" width="220" height="8" as="geometry" />
        </mxCell>
        <mxCell id="2IdYhjhQksEz0VN_lS5l-68" value="+ Draw(canvas: ICanvas): void" style="text;strokeColor=none;fillColor=none;align=left;verticalAlign=top;spacingLeft=4;spacingRight=4;overflow=hidden;rotatable=0;points=[[0,0.5],[1,0.5]];portConstraint=eastwest;whiteSpace=wrap;html=1;" parent="2IdYhjhQksEz0VN_lS5l-62" vertex="1">
          <mxGeometry y="190" width="220" height="26" as="geometry" />
        </mxCell>
        <mxCell id="2IdYhjhQksEz0VN_lS5l-69" value="&lt;i&gt;+ MoveTo(dx: double, dy: double): void&lt;/i&gt;" style="text;strokeColor=none;fillColor=none;align=left;verticalAlign=top;spacingLeft=4;spacingRight=4;overflow=hidden;rotatable=0;points=[[0,0.5],[1,0.5]];portConstraint=eastwest;whiteSpace=wrap;html=1;" parent="2IdYhjhQksEz0VN_lS5l-62" vertex="1">
          <mxGeometry y="216" width="220" height="26" as="geometry" />
        </mxCell>
        <mxCell id="2IdYhjhQksEz0VN_lS5l-70" value="+ GetType(): string" style="text;strokeColor=none;fillColor=none;align=left;verticalAlign=top;spacingLeft=4;spacingRight=4;overflow=hidden;rotatable=0;points=[[0,0.5],[1,0.5]];portConstraint=eastwest;whiteSpace=wrap;html=1;" parent="2IdYhjhQksEz0VN_lS5l-62" vertex="1">
          <mxGeometry y="242" width="220" height="26" as="geometry" />
        </mxCell>
        <mxCell id="OTlooxgMmgsXdkru4W10-4" value="&lt;i&gt;+ GetParams(): string&lt;/i&gt;" style="text;strokeColor=none;fillColor=none;align=left;verticalAlign=top;spacingLeft=4;spacingRight=4;overflow=hidden;rotatable=0;points=[[0,0.5],[1,0.5]];portConstraint=eastwest;whiteSpace=wrap;html=1;" vertex="1" parent="2IdYhjhQksEz0VN_lS5l-62">
          <mxGeometry y="268" width="220" height="26" as="geometry" />
        </mxCell>
        <mxCell id="2IdYhjhQksEz0VN_lS5l-71" value="" style="endArrow=block;dashed=1;endFill=0;endSize=12;html=1;rounded=0;" parent="1" source="2IdYhjhQksEz0VN_lS5l-62" target="Rg9wagiexUnOvc4vePpl-54" edge="1">
          <mxGeometry width="160" relative="1" as="geometry">
            <mxPoint x="1251" y="454" as="sourcePoint" />
            <mxPoint x="1370" y="546" as="targetPoint" />
            <Array as="points">
              <mxPoint x="1700" y="450" />
              <mxPoint x="1165" y="450" />
            </Array>
          </mxGeometry>
        </mxCell>
        <mxCell id="2IdYhjhQksEz0VN_lS5l-72" value="DrawLine" style="swimlane;fontStyle=1;align=center;verticalAlign=top;childLayout=stackLayout;horizontal=1;startSize=26;horizontalStack=0;resizeParent=1;resizeParentMax=0;resizeLast=0;collapsible=1;marginBottom=0;whiteSpace=wrap;html=1;" parent="1" vertex="1">
          <mxGeometry x="1820" y="510" width="220" height="242" as="geometry" />
        </mxCell>
        <mxCell id="2IdYhjhQksEz0VN_lS5l-73" value="- x1: double" style="text;strokeColor=none;fillColor=none;align=left;verticalAlign=top;spacingLeft=4;spacingRight=4;overflow=hidden;rotatable=0;points=[[0,0.5],[1,0.5]];portConstraint=eastwest;whiteSpace=wrap;html=1;" parent="2IdYhjhQksEz0VN_lS5l-72" vertex="1">
          <mxGeometry y="26" width="220" height="26" as="geometry" />
        </mxCell>
        <mxCell id="2IdYhjhQksEz0VN_lS5l-74" value="- x2: double" style="text;strokeColor=none;fillColor=none;align=left;verticalAlign=top;spacingLeft=4;spacingRight=4;overflow=hidden;rotatable=0;points=[[0,0.5],[1,0.5]];portConstraint=eastwest;whiteSpace=wrap;html=1;" parent="2IdYhjhQksEz0VN_lS5l-72" vertex="1">
          <mxGeometry y="52" width="220" height="26" as="geometry" />
        </mxCell>
        <mxCell id="2IdYhjhQksEz0VN_lS5l-75" value="- y1: double" style="text;strokeColor=none;fillColor=none;align=left;verticalAlign=top;spacingLeft=4;spacingRight=4;overflow=hidden;rotatable=0;points=[[0,0.5],[1,0.5]];portConstraint=eastwest;whiteSpace=wrap;html=1;" parent="2IdYhjhQksEz0VN_lS5l-72" vertex="1">
          <mxGeometry y="78" width="220" height="26" as="geometry" />
        </mxCell>
        <mxCell id="2IdYhjhQksEz0VN_lS5l-76" value="- y2: double" style="text;strokeColor=none;fillColor=none;align=left;verticalAlign=top;spacingLeft=4;spacingRight=4;overflow=hidden;rotatable=0;points=[[0,0.5],[1,0.5]];portConstraint=eastwest;whiteSpace=wrap;html=1;" parent="2IdYhjhQksEz0VN_lS5l-72" vertex="1">
          <mxGeometry y="104" width="220" height="26" as="geometry" />
        </mxCell>
        <mxCell id="2IdYhjhQksEz0VN_lS5l-77" value="" style="line;strokeWidth=1;fillColor=none;align=left;verticalAlign=middle;spacingTop=-1;spacingLeft=3;spacingRight=3;rotatable=0;labelPosition=right;points=[];portConstraint=eastwest;strokeColor=inherit;" parent="2IdYhjhQksEz0VN_lS5l-72" vertex="1">
          <mxGeometry y="130" width="220" height="8" as="geometry" />
        </mxCell>
        <mxCell id="2IdYhjhQksEz0VN_lS5l-78" value="+ Draw(canvas: ICanvas): void" style="text;strokeColor=none;fillColor=none;align=left;verticalAlign=top;spacingLeft=4;spacingRight=4;overflow=hidden;rotatable=0;points=[[0,0.5],[1,0.5]];portConstraint=eastwest;whiteSpace=wrap;html=1;" parent="2IdYhjhQksEz0VN_lS5l-72" vertex="1">
          <mxGeometry y="138" width="220" height="26" as="geometry" />
        </mxCell>
        <mxCell id="2IdYhjhQksEz0VN_lS5l-79" value="&lt;i&gt;+ MoveTo(dx: double, dy: double): void&lt;/i&gt;" style="text;strokeColor=none;fillColor=none;align=left;verticalAlign=top;spacingLeft=4;spacingRight=4;overflow=hidden;rotatable=0;points=[[0,0.5],[1,0.5]];portConstraint=eastwest;whiteSpace=wrap;html=1;" parent="2IdYhjhQksEz0VN_lS5l-72" vertex="1">
          <mxGeometry y="164" width="220" height="26" as="geometry" />
        </mxCell>
        <mxCell id="2IdYhjhQksEz0VN_lS5l-80" value="+ GetType(): string" style="text;strokeColor=none;fillColor=none;align=left;verticalAlign=top;spacingLeft=4;spacingRight=4;overflow=hidden;rotatable=0;points=[[0,0.5],[1,0.5]];portConstraint=eastwest;whiteSpace=wrap;html=1;" parent="2IdYhjhQksEz0VN_lS5l-72" vertex="1">
          <mxGeometry y="190" width="220" height="26" as="geometry" />
        </mxCell>
        <mxCell id="OTlooxgMmgsXdkru4W10-5" value="&lt;i&gt;+ GetParams(): string&lt;/i&gt;" style="text;strokeColor=none;fillColor=none;align=left;verticalAlign=top;spacingLeft=4;spacingRight=4;overflow=hidden;rotatable=0;points=[[0,0.5],[1,0.5]];portConstraint=eastwest;whiteSpace=wrap;html=1;" vertex="1" parent="2IdYhjhQksEz0VN_lS5l-72">
          <mxGeometry y="216" width="220" height="26" as="geometry" />
        </mxCell>
        <mxCell id="2IdYhjhQksEz0VN_lS5l-81" value="DrawText" style="swimlane;fontStyle=1;align=center;verticalAlign=top;childLayout=stackLayout;horizontal=1;startSize=26;horizontalStack=0;resizeParent=1;resizeParentMax=0;resizeLast=0;collapsible=1;marginBottom=0;whiteSpace=wrap;html=1;" parent="1" vertex="1">
          <mxGeometry x="2050" y="510" width="220" height="242" as="geometry" />
        </mxCell>
        <mxCell id="2IdYhjhQksEz0VN_lS5l-82" value="- left: double" style="text;strokeColor=none;fillColor=none;align=left;verticalAlign=top;spacingLeft=4;spacingRight=4;overflow=hidden;rotatable=0;points=[[0,0.5],[1,0.5]];portConstraint=eastwest;whiteSpace=wrap;html=1;" parent="2IdYhjhQksEz0VN_lS5l-81" vertex="1">
          <mxGeometry y="26" width="220" height="26" as="geometry" />
        </mxCell>
        <mxCell id="2IdYhjhQksEz0VN_lS5l-83" value="- top: double" style="text;strokeColor=none;fillColor=none;align=left;verticalAlign=top;spacingLeft=4;spacingRight=4;overflow=hidden;rotatable=0;points=[[0,0.5],[1,0.5]];portConstraint=eastwest;whiteSpace=wrap;html=1;" parent="2IdYhjhQksEz0VN_lS5l-81" vertex="1">
          <mxGeometry y="52" width="220" height="26" as="geometry" />
        </mxCell>
        <mxCell id="2IdYhjhQksEz0VN_lS5l-84" value="- fontSize: double" style="text;strokeColor=none;fillColor=none;align=left;verticalAlign=top;spacingLeft=4;spacingRight=4;overflow=hidden;rotatable=0;points=[[0,0.5],[1,0.5]];portConstraint=eastwest;whiteSpace=wrap;html=1;" parent="2IdYhjhQksEz0VN_lS5l-81" vertex="1">
          <mxGeometry y="78" width="220" height="26" as="geometry" />
        </mxCell>
        <mxCell id="2IdYhjhQksEz0VN_lS5l-85" value="- text: string" style="text;strokeColor=none;fillColor=none;align=left;verticalAlign=top;spacingLeft=4;spacingRight=4;overflow=hidden;rotatable=0;points=[[0,0.5],[1,0.5]];portConstraint=eastwest;whiteSpace=wrap;html=1;" parent="2IdYhjhQksEz0VN_lS5l-81" vertex="1">
          <mxGeometry y="104" width="220" height="26" as="geometry" />
        </mxCell>
        <mxCell id="2IdYhjhQksEz0VN_lS5l-86" value="" style="line;strokeWidth=1;fillColor=none;align=left;verticalAlign=middle;spacingTop=-1;spacingLeft=3;spacingRight=3;rotatable=0;labelPosition=right;points=[];portConstraint=eastwest;strokeColor=inherit;" parent="2IdYhjhQksEz0VN_lS5l-81" vertex="1">
          <mxGeometry y="130" width="220" height="8" as="geometry" />
        </mxCell>
        <mxCell id="2IdYhjhQksEz0VN_lS5l-87" value="+ Draw(canvas: ICanvas): void" style="text;strokeColor=none;fillColor=none;align=left;verticalAlign=top;spacingLeft=4;spacingRight=4;overflow=hidden;rotatable=0;points=[[0,0.5],[1,0.5]];portConstraint=eastwest;whiteSpace=wrap;html=1;" parent="2IdYhjhQksEz0VN_lS5l-81" vertex="1">
          <mxGeometry y="138" width="220" height="26" as="geometry" />
        </mxCell>
        <mxCell id="2IdYhjhQksEz0VN_lS5l-88" value="&lt;i&gt;+ MoveTo(dx: double, dy: double): void&lt;/i&gt;" style="text;strokeColor=none;fillColor=none;align=left;verticalAlign=top;spacingLeft=4;spacingRight=4;overflow=hidden;rotatable=0;points=[[0,0.5],[1,0.5]];portConstraint=eastwest;whiteSpace=wrap;html=1;" parent="2IdYhjhQksEz0VN_lS5l-81" vertex="1">
          <mxGeometry y="164" width="220" height="26" as="geometry" />
        </mxCell>
        <mxCell id="2IdYhjhQksEz0VN_lS5l-89" value="+ GetType(): string" style="text;strokeColor=none;fillColor=none;align=left;verticalAlign=top;spacingLeft=4;spacingRight=4;overflow=hidden;rotatable=0;points=[[0,0.5],[1,0.5]];portConstraint=eastwest;whiteSpace=wrap;html=1;" parent="2IdYhjhQksEz0VN_lS5l-81" vertex="1">
          <mxGeometry y="190" width="220" height="26" as="geometry" />
        </mxCell>
        <mxCell id="OTlooxgMmgsXdkru4W10-6" value="&lt;i&gt;+ GetParams(): string&lt;/i&gt;" style="text;strokeColor=none;fillColor=none;align=left;verticalAlign=top;spacingLeft=4;spacingRight=4;overflow=hidden;rotatable=0;points=[[0,0.5],[1,0.5]];portConstraint=eastwest;whiteSpace=wrap;html=1;" vertex="1" parent="2IdYhjhQksEz0VN_lS5l-81">
          <mxGeometry y="216" width="220" height="26" as="geometry" />
        </mxCell>
        <mxCell id="2IdYhjhQksEz0VN_lS5l-92" value="" style="endArrow=block;dashed=1;endFill=0;endSize=12;html=1;rounded=0;" parent="1" source="2IdYhjhQksEz0VN_lS5l-72" target="Rg9wagiexUnOvc4vePpl-54" edge="1">
          <mxGeometry width="160" relative="1" as="geometry">
            <mxPoint x="1170" y="428" as="sourcePoint" />
            <mxPoint x="1700" y="510" as="targetPoint" />
            <Array as="points">
              <mxPoint x="1930" y="450" />
              <mxPoint x="1165" y="450" />
            </Array>
          </mxGeometry>
        </mxCell>
        <mxCell id="2IdYhjhQksEz0VN_lS5l-93" value="" style="endArrow=block;dashed=1;endFill=0;endSize=12;html=1;rounded=0;" parent="1" source="2IdYhjhQksEz0VN_lS5l-81" target="Rg9wagiexUnOvc4vePpl-54" edge="1">
          <mxGeometry width="160" relative="1" as="geometry">
            <mxPoint x="1170" y="428" as="sourcePoint" />
            <mxPoint x="1700" y="510" as="targetPoint" />
            <Array as="points">
              <mxPoint x="2160" y="450" />
              <mxPoint x="1165" y="450" />
            </Array>
          </mxGeometry>
        </mxCell>
        <mxCell id="2IdYhjhQksEz0VN_lS5l-94" value="Use" style="endArrow=open;endSize=12;dashed=1;html=1;rounded=0;" parent="1" source="2IdYhjhQksEz0VN_lS5l-32" target="Rg9wagiexUnOvc4vePpl-42" edge="1">
          <mxGeometry x="-0.2467" width="160" relative="1" as="geometry">
            <mxPoint x="900" y="790" as="sourcePoint" />
            <mxPoint x="1060" y="790" as="targetPoint" />
            <Array as="points">
              <mxPoint x="1230" y="920" />
              <mxPoint x="600" y="920" />
              <mxPoint x="600" y="800" />
            </Array>
            <mxPoint as="offset" />
          </mxGeometry>
        </mxCell>
        <mxCell id="2IdYhjhQksEz0VN_lS5l-95" value="Use" style="endArrow=open;endSize=12;dashed=1;html=1;rounded=0;" parent="1" source="2IdYhjhQksEz0VN_lS5l-43" target="Rg9wagiexUnOvc4vePpl-42" edge="1">
          <mxGeometry x="-0.0294" width="160" relative="1" as="geometry">
            <mxPoint x="1227" y="700" as="sourcePoint" />
            <mxPoint x="570" y="794" as="targetPoint" />
            <Array as="points">
              <mxPoint x="1460" y="940" />
              <mxPoint x="600" y="940" />
              <mxPoint x="600" y="800" />
            </Array>
            <mxPoint as="offset" />
          </mxGeometry>
        </mxCell>
        <mxCell id="2IdYhjhQksEz0VN_lS5l-96" value="Use" style="endArrow=open;endSize=12;dashed=1;html=1;rounded=0;" parent="1" source="2IdYhjhQksEz0VN_lS5l-62" target="Rg9wagiexUnOvc4vePpl-42" edge="1">
          <mxGeometry x="0.0997" width="160" relative="1" as="geometry">
            <mxPoint x="1456" y="726" as="sourcePoint" />
            <mxPoint x="570" y="794" as="targetPoint" />
            <Array as="points">
              <mxPoint x="1700" y="960" />
              <mxPoint x="600" y="960" />
              <mxPoint x="600" y="800" />
            </Array>
            <mxPoint as="offset" />
          </mxGeometry>
        </mxCell>
        <mxCell id="2IdYhjhQksEz0VN_lS5l-98" value="Use" style="endArrow=open;endSize=12;dashed=1;html=1;rounded=0;" parent="1" source="2IdYhjhQksEz0VN_lS5l-72" target="Rg9wagiexUnOvc4vePpl-42" edge="1">
          <mxGeometry x="0.2393" width="160" relative="1" as="geometry">
            <mxPoint x="1695" y="778" as="sourcePoint" />
            <mxPoint x="570" y="794" as="targetPoint" />
            <Array as="points">
              <mxPoint x="1930" y="980" />
              <mxPoint x="600" y="980" />
              <mxPoint x="600" y="800" />
            </Array>
            <mxPoint as="offset" />
          </mxGeometry>
        </mxCell>
        <mxCell id="2IdYhjhQksEz0VN_lS5l-99" value="Use" style="endArrow=open;endSize=12;dashed=1;html=1;rounded=0;" parent="1" source="2IdYhjhQksEz0VN_lS5l-81" target="Rg9wagiexUnOvc4vePpl-42" edge="1">
          <mxGeometry x="0.3196" width="160" relative="1" as="geometry">
            <mxPoint x="1695" y="778" as="sourcePoint" />
            <mxPoint x="570" y="794" as="targetPoint" />
            <Array as="points">
              <mxPoint x="2160" y="1000" />
              <mxPoint x="600" y="1000" />
              <mxPoint x="600" y="800" />
            </Array>
            <mxPoint as="offset" />
          </mxGeometry>
        </mxCell>
        <mxCell id="2IdYhjhQksEz0VN_lS5l-100" value="SFML" style="shape=module;align=left;spacingLeft=20;align=center;verticalAlign=top;whiteSpace=wrap;html=1;" parent="1" vertex="1">
          <mxGeometry x="140" y="940" width="330" height="120" as="geometry" />
        </mxCell>
        <mxCell id="2IdYhjhQksEz0VN_lS5l-101" value="Canvas" style="swimlane;fontStyle=1;align=center;verticalAlign=top;childLayout=stackLayout;horizontal=1;startSize=26;horizontalStack=0;resizeParent=1;resizeParentMax=0;resizeLast=0;collapsible=1;marginBottom=0;whiteSpace=wrap;html=1;" parent="1" vertex="1">
          <mxGeometry x="180" y="990" width="180" height="34" as="geometry" />
        </mxCell>
        <mxCell id="2IdYhjhQksEz0VN_lS5l-103" value="" style="line;strokeWidth=1;fillColor=none;align=left;verticalAlign=middle;spacingTop=-1;spacingLeft=3;spacingRight=3;rotatable=0;labelPosition=right;points=[];portConstraint=eastwest;strokeColor=inherit;" parent="2IdYhjhQksEz0VN_lS5l-101" vertex="1">
          <mxGeometry y="26" width="180" height="8" as="geometry" />
        </mxCell>
        <mxCell id="2IdYhjhQksEz0VN_lS5l-105" value="" style="endArrow=block;dashed=1;endFill=0;endSize=12;html=1;rounded=0;" parent="1" source="2IdYhjhQksEz0VN_lS5l-101" target="Rg9wagiexUnOvc4vePpl-42" edge="1">
          <mxGeometry width="160" relative="1" as="geometry">
            <mxPoint x="370" y="1130" as="sourcePoint" />
            <mxPoint x="530" y="1130" as="targetPoint" />
          </mxGeometry>
        </mxCell>
        <mxCell id="2IdYhjhQksEz0VN_lS5l-108" value="" style="endArrow=diamondThin;endFill=1;endSize=24;html=1;rounded=0;" parent="1" source="2IdYhjhQksEz0VN_lS5l-101" target="Rg9wagiexUnOvc4vePpl-2" edge="1">
          <mxGeometry width="160" relative="1" as="geometry">
            <mxPoint x="360" y="650" as="sourcePoint" />
            <mxPoint x="520" y="650" as="targetPoint" />
            <Array as="points">
              <mxPoint x="100" y="900" />
              <mxPoint x="100" y="160" />
            </Array>
          </mxGeometry>
        </mxCell>
      </root>
    </mxGraphModel>
  </diagram>
</mxfile>
